<?xml version="1.0"?>
<svg version="1.1" xmlns="http://www.w3.org/2000/svg" width="150px" height="50px" style=""><path fill="#f50c18" d="M6.48,28.645l6.21,0l0,2.16l-6.21,0l0,6.615l6.21,0l0.54-2.7l1.755,0l0,4.86l-13.635,0l0-1.62l2.295-0.54l0-14.58l-2.295-0.54l0-1.485l5.13-0.135l8.235,0l0,4.59l-1.755,0l-0.675-2.43l-5.805,0l0,5.805z M18.5922,22.3l0-1.485l7.56-0.135l0,1.62l-2.457,0.513l4.239,13.122l4.509-13.095l-2.511-0.54l0-1.485l7.29-0.135l0,1.62l-2.106,0.54l-5.994,16.74l-2.7,0l-5.751-16.74z M45.6894,28.645l6.21,0l0,2.16l-6.21,0l0,6.615l6.21,0l0.54-2.7l1.755,0l0,4.86l-13.635,0l0-1.62l2.295-0.54l0-14.58l-2.295-0.54l0-1.485l5.13-0.135l8.235,0l0,4.59l-1.755,0l-0.675-2.43l-5.805,0l0,5.805z M63.4716,37.42l2.565,0.54l0,1.62l-7.29,0l0-1.62l2.295-0.54l0-14.58l-2.295-0.54l0-1.485l5.67-0.135l8.91,15.093l0-12.933l-2.295-0.54l0-1.485l7.02-0.135l0,1.62l-2.295,0.54l0,16.74l-3.375,0l-8.91-14.877l0,12.717z M84.3588,39.58l0-1.62l2.7-0.54l0-14.58l-3.51,0l-0.675,2.7l-1.755,0l0-4.86l14.715,0l0,4.86l-1.755,0l-0.675-2.7l-3.51,0l0,14.58l2.7,0.54l0,1.62l-8.235,0z M99.171,39.58l0-1.62l2.295-0.54l0-14.58l-2.295-0.54l0-1.485l7.425-0.135l0,1.62l-2.295,0.54l0,14.58l2.295,0.54l0,1.62l-7.425,0z M113.3082,25.405l0-1.62c0-3.24,1.755-5.265,4.995-5.265c2.565,0,4.05,0.945,4.05,0.945l0,3.375l-1.89,0l-0.405-2.16s-0.675-0.135-1.62-0.135c-1.89,0-2.43,1.08-2.43,2.7l0,2.16l3.564,0l-0.081,2.025l-3.483,0l0,9.99l2.7,0.675l0,1.485l-7.695,0l0-1.485l2.295-0.675l0-9.99l-2.43,0l0-1.755z M130.0104,37.42l0-4.833l-5.211-9.774l-1.809-0.513l0-1.485l6.75-0.135l0,1.62l-1.836,0.54l3.591,7.56l3.969-7.56l-2.079-0.54l0-1.485l6.48-0.135l0,1.62l-1.674,0.486l-5.346,9.747l0,4.887l2.295,0.54l0,1.62l-7.425,0l0-1.62z"/><path fill="#" d=""/></svg>
